<svg id="레이어_1" data-name="레이어 1" xmlns="http://www.w3.org/2000/svg" viewBox="0 0 250 300"><defs><style>.cls-1{fill:#7b61ff;}.cls-2{fill:#fff;}</style></defs><circle class="cls-1" cx="125" cy="140.82" r="94.49"/><ellipse class="cls-2" cx="81.8" cy="132.72" rx="24.3" ry="32.4"/><ellipse cx="95.3" cy="132.72" rx="10.8" ry="23.4"/><ellipse class="cls-2" cx="130.4" cy="132.72" rx="24.3" ry="32.4"/><ellipse cx="143.9" cy="132.72" rx="10.8" ry="23.4"/><path d="M107.21,184.69c-9.82,0-17-8.78-17.26-9.15l3.4-2.73c.06.07,6.15,7.52,13.86,7.52h0c4.45,0,8.74-2.54,12.72-7.52l3.41,2.73C118.51,181.61,113.07,184.69,107.21,184.69Z"/><rect class="cls-1" x="105.55" y="226.98" width="16.67" height="50.02"/><path class="cls-1" d="M102.77,260.33h19.45a0,0,0,0,1,0,0V277a0,0,0,0,1,0,0H102.77a8.34,8.34,0,0,1-8.34-8.34v0a8.34,8.34,0,0,1,8.34-8.34Z"/><rect class="cls-1" x="127.78" y="226.98" width="16.67" height="50.02"/><path class="cls-1" d="M136.12,260.33h19.45a0,0,0,0,1,0,0V277a0,0,0,0,1,0,0H136.12a8.34,8.34,0,0,1-8.34-8.34v0A8.34,8.34,0,0,1,136.12,260.33Z" transform="translate(283.35 537.33) rotate(180)"/></svg>