<svg id="레이어_1" data-name="레이어 1" xmlns="http://www.w3.org/2000/svg" viewBox="0 0 250 300"><defs><style>.cls-1{fill:#8cc66a;}.cls-2{fill:#33591b;}.cls-3{fill:#7b61ff;}.cls-4{fill:#fff;}.cls-5,.cls-7,.cls-8{fill:#ff8594;}.cls-6{fill:#410bb5;}.cls-7{opacity:0.5;}.cls-8{opacity:0.3;}</style></defs><path class="cls-1" d="M44.81,120.86A4.85,4.85,0,0,1,43.5,117h0a15.09,15.09,0,0,1,.68-3.3,26.5,26.5,0,0,1-8.26,1.85,15,15,0,0,1-4.06-.38,4.2,4.2,0,0,1-3-2.19,4.31,4.31,0,0,1,.07-3.79,14.84,14.84,0,0,1,1.19-2l.37-.57.05-.07-2-1.18-.4-.19a11.1,11.1,0,0,1-4-4.17l-.16-.27-.12-.47a5.24,5.24,0,0,1,1.63-6.19,14.27,14.27,0,0,1,6-2.9c.43-.12.87-.22,1.31-.31h.05a15.05,15.05,0,0,1-.76-2.58,4.55,4.55,0,0,1,.87-4,4.66,4.66,0,0,1,3.91-1.39,14.86,14.86,0,0,1,6.8,2.21c1.45.83,2.82,1.78,4.15,2.7a9.29,9.29,0,0,1,.59-4,4.63,4.63,0,0,1,5.67-3,11.47,11.47,0,0,1,5.33,3.15,24.26,24.26,0,0,1,6.38,10.41A6,6,0,0,0,68,97.62a9.51,9.51,0,0,1,3.34,4.19,3.49,3.49,0,0,1,.38,2.37,6.93,6.93,0,0,1-.7,2.09h0a6.37,6.37,0,0,1-2.12,2.21A15.25,15.25,0,0,1,66,110a5.84,5.84,0,0,0-2.87,2.43A23.43,23.43,0,0,1,53.29,121a14.37,14.37,0,0,1-4.63,1.14A4.84,4.84,0,0,1,44.81,120.86Z"/><path class="cls-2" d="M51.72,110.91a1.49,1.49,0,0,1-.28-2.08l4-5.25-10-1.51L40.71,107a1.49,1.49,0,1,1-2.15-2l3.26-3.41-4.58-.69a1.49,1.49,0,0,1,.45-2.94l4.8.73L40.21,94a1.48,1.48,0,0,1,2.65-1.32l3.22,6.45,10,1.51-2.41-6.56a1.49,1.49,0,0,1,2.79-1l3,8.08L78.2,104a1.48,1.48,0,0,1-.44,2.93l-19-2.86-5,6.55A1.48,1.48,0,0,1,51.72,110.91Z"/><circle class="cls-3" cx="125.2" cy="183.06" r="94.94"/><ellipse class="cls-4" cx="81.8" cy="174.92" rx="24.41" ry="32.55"/><ellipse cx="95.36" cy="174.92" rx="10.85" ry="23.51"/><ellipse class="cls-4" cx="130.62" cy="174.92" rx="24.41" ry="32.55"/><ellipse cx="144.19" cy="174.92" rx="10.85" ry="23.51"/><path class="cls-5" d="M151.81,172.23A4.77,4.77,0,0,0,151,170a4.1,4.1,0,0,0-4.29-1.68,4.19,4.19,0,0,0-2.26,1.49l-.17.22,0,0-.14-.18a3.9,3.9,0,0,0-3.94-1.51A4,4,0,0,0,137,171a5,5,0,0,0,.59,4.6,10.34,10.34,0,0,0,1.87,2.14c1.38,1.23,2.78,2.44,4.18,3.65a.88.88,0,0,0,1.25,0l3.21-2.77a16.94,16.94,0,0,0,2.51-2.57,5.83,5.83,0,0,0,1-2.07c.07-.29.11-.59.16-.89v-.67Z"/><path class="cls-5" d="M103.1,172.23a4.68,4.68,0,0,0-.81-2.25,4,4,0,0,0-6.54-.19l-.17.22a.14.14,0,0,1,0,0l-.15-.18a3.9,3.9,0,0,0-3.94-1.51A4,4,0,0,0,88.33,171a5,5,0,0,0,.59,4.6,10.34,10.34,0,0,0,1.87,2.14c1.38,1.23,2.78,2.44,4.17,3.65a.89.89,0,0,0,1.26,0l3.21-2.77a17.42,17.42,0,0,0,2.51-2.57,6,6,0,0,0,1-2.07c.07-.29.1-.59.15-.89v-.67C103.12,172.33,103.1,172.28,103.1,172.23Z"/><path d="M106.89,225.51a8.64,8.64,0,1,1,8.64-8.63A8.64,8.64,0,0,1,106.89,225.51Zm0-14.27a5.64,5.64,0,1,0,5.64,5.64A5.64,5.64,0,0,0,106.89,211.24Z"/><path class="cls-1" d="M209.28,153.31a5.19,5.19,0,0,0,2.7-3.45h0a16.38,16.38,0,0,0,.49-3.6,28.69,28.69,0,0,0,7.75,4.84,16.62,16.62,0,0,0,4.27,1.07,4.55,4.55,0,0,0,3.85-1.16,4.64,4.64,0,0,0,1.28-3.88,15.76,15.76,0,0,0-.48-2.51l-.17-.7,0-.1,2.48-.47.47-.06a11.86,11.86,0,0,0,5.55-2.81l.27-.22.28-.43a5.65,5.65,0,0,0,.56-6.89,15.43,15.43,0,0,0-5-5.09c-.4-.28-.82-.53-1.23-.78l-.05,0a15.5,15.5,0,0,0,1.7-2.34,4.91,4.91,0,0,0,.54-4.38A5,5,0,0,0,231,117.5a16.08,16.08,0,0,0-7.71-.19c-1.78.33-3.51.8-5.19,1.27a10.26,10.26,0,0,0,.85-4.34,5,5,0,0,0-4.71-5.06,12.38,12.38,0,0,0-6.55,1.3,26.18,26.18,0,0,0-10.22,8.32,6.6,6.6,0,0,1-3.51,2.55,10.19,10.19,0,0,0-4.9,3.06,3.79,3.79,0,0,0-1.24,2.28,7.69,7.69,0,0,0,0,2.38h0a6.81,6.81,0,0,0,1.36,3,17,17,0,0,0,2.4,2.6,6.29,6.29,0,0,1,2.06,3.49,25.21,25.21,0,0,0,7,12.25,15,15,0,0,0,4.3,2.82A5.23,5.23,0,0,0,209.28,153.31Z"/><path class="cls-2" d="M205.8,140.71a1.58,1.58,0,0,0,1-2l-2.19-6.78L215.39,134l3,6.69a1.6,1.6,0,0,0,2.92-1.32l-2.1-4.64,4.91.94a1.6,1.6,0,0,0,.6-3.15l-5.16-1,4-3.85a1.59,1.59,0,1,0-2.22-2.29l-5.59,5.41-10.7-2,4.79-5.81a1.6,1.6,0,1,0-2.47-2l-5.91,7.16-20.14-3.83a1.6,1.6,0,1,0-.59,3.14L201,131.23l2.74,8.45A1.6,1.6,0,0,0,205.8,140.71Z"/><path class="cls-1" d="M151.24,146.36a6,6,0,0,0,3.12-4h0a18.56,18.56,0,0,0,.57-4.16,32.93,32.93,0,0,0,8.95,5.58,19.42,19.42,0,0,0,4.92,1.24,5.26,5.26,0,0,0,4.44-1.34,5.35,5.35,0,0,0,1.48-4.48,17.64,17.64,0,0,0-.56-2.89l-.19-.81,0-.12c.95-.19,1.91-.37,2.86-.54l.54-.07a13.69,13.69,0,0,0,6.41-3.24l.3-.26.33-.49a6.53,6.53,0,0,0,.65-8A17.81,17.81,0,0,0,179.2,117c-.45-.32-.93-.61-1.41-.9l-.06,0a18.2,18.2,0,0,0,2-2.71,5.67,5.67,0,0,0,.62-5,5.77,5.77,0,0,0-4-3.24,18.43,18.43,0,0,0-8.9-.22c-2.05.38-4.05.92-6,1.46a11.8,11.8,0,0,0,1-5A5.76,5.76,0,0,0,157,95.44a14.12,14.12,0,0,0-7.56,1.5,30.16,30.16,0,0,0-11.8,9.59,7.61,7.61,0,0,1-4,3,11.74,11.74,0,0,0-5.66,3.54,4.43,4.43,0,0,0-1.43,2.62,9.13,9.13,0,0,0,0,2.75h0a7.91,7.91,0,0,0,1.57,3.47,18.71,18.71,0,0,0,2.77,3,7.27,7.27,0,0,1,2.38,4A29.17,29.17,0,0,0,141.21,143a17.73,17.73,0,0,0,5,3.25A6,6,0,0,0,151.24,146.36Z"/><path class="cls-2" d="M147.22,131.83a1.85,1.85,0,0,0,1.19-2.33l-2.53-7.83L158.3,124l3.48,7.72a1.85,1.85,0,1,0,3.37-1.52l-2.42-5.35,5.66,1.08a1.85,1.85,0,0,0,.7-3.63l-6-1.13,4.58-4.44a1.85,1.85,0,0,0-2.57-2.66l-6.45,6.25L146.35,118l5.53-6.71A1.85,1.85,0,0,0,149,109l-6.82,8.27L119,112.79a1.84,1.84,0,1,0-.69,3.62l23.46,4.48,3.16,9.75A1.84,1.84,0,0,0,147.22,131.83Z"/><path class="cls-1" d="M89.73,133.9a6.07,6.07,0,0,0,3.13-4h0a19.13,19.13,0,0,0,.56-4.16,32.69,32.69,0,0,0,9,5.58,18.61,18.61,0,0,0,4.92,1.24,5.22,5.22,0,0,0,4.44-1.34,5.35,5.35,0,0,0,1.48-4.48,17.64,17.64,0,0,0-.56-2.89l-.19-.81,0-.12,2.86-.54.54-.07a13.69,13.69,0,0,0,6.41-3.24l.31-.25.33-.5a6.55,6.55,0,0,0,.64-8,17.88,17.88,0,0,0-5.82-5.88c-.46-.32-.94-.61-1.42-.9l-.06,0a18.2,18.2,0,0,0,2-2.71,5.67,5.67,0,0,0,.62-5,5.8,5.8,0,0,0-4-3.24,18.68,18.68,0,0,0-8.9-.22c-2,.38-4,.92-6,1.47a11.87,11.87,0,0,0,1-5A5.76,5.76,0,0,0,95.45,83a14.23,14.23,0,0,0-7.56,1.5,30.23,30.23,0,0,0-11.8,9.59,7.56,7.56,0,0,1-4,3,11.74,11.74,0,0,0-5.66,3.54A4.36,4.36,0,0,0,65,103.17a8.52,8.52,0,0,0,0,2.75h0a8,8,0,0,0,1.57,3.48,18.74,18.74,0,0,0,2.78,3,7.31,7.31,0,0,1,2.37,4,29.18,29.18,0,0,0,8,14.14,17.73,17.73,0,0,0,5,3.25A6,6,0,0,0,89.73,133.9Z"/><path class="cls-2" d="M85.71,119.36A1.84,1.84,0,0,0,86.9,117l-2.53-7.82,12.42,2.36,3.49,7.73a1.84,1.84,0,0,0,3.36-1.52l-2.42-5.36,5.67,1.08a1.85,1.85,0,0,0,.69-3.63l-6-1.13,4.58-4.44a1.85,1.85,0,1,0-2.57-2.65l-6.44,6.24-12.36-2.35,5.53-6.71a1.85,1.85,0,0,0-2.85-2.35l-6.82,8.27-23.24-4.43a1.85,1.85,0,1,0-.69,3.63l23.46,4.47,3.16,9.75A1.84,1.84,0,0,0,85.71,119.36Z"/><circle class="cls-6" cx="185.08" cy="126.59" r="8.07"/><circle class="cls-6" cx="124.89" cy="115.42" r="8.07"/><circle class="cls-6" cx="65.32" cy="103.94" r="8.07"/><circle class="cls-7" cx="75.79" cy="40.33" r="18"/><circle class="cls-7" cx="181.94" cy="61.95" r="11.17"/><circle class="cls-8" cx="90.07" cy="53.98" r="15.51"/></svg>