<svg xmlns="http://www.w3.org/2000/svg" viewBox="0 0 250 300"><defs><style>.cls-1{isolation:isolate;}.cls-2{fill:#7b61ff;}.cls-3{fill:#f1f1f1;}.cls-4{fill:#fff;}.cls-5{mix-blend-mode:screen;}.cls-6{fill:#d2f3f9;}.cls-10,.cls-7,.cls-8,.cls-9{fill:none;stroke:#fbde66;}.cls-7,.cls-8,.cls-9{stroke-miterlimit:10;}.cls-7{stroke-width:3.38px;}.cls-10,.cls-8,.cls-9{stroke-linecap:round;stroke-width:5.07px;}.cls-9{stroke-dasharray:0 9.46;}.cls-10{stroke-linejoin:round;}</style></defs><g class="cls-1"><g id="레이어_1" data-name="레이어 1"><circle class="cls-2" cx="124.69" cy="182.98" r="94.63"/><ellipse class="cls-3" cx="133.98" cy="173.69" rx="23.66" ry="32.11"/><ellipse cx="145.81" cy="173.69" rx="11.83" ry="24.08"/><ellipse class="cls-3" cx="86.66" cy="173.69" rx="23.66" ry="32.11"/><ellipse cx="98.49" cy="173.69" rx="11.83" ry="24.08"/><path class="cls-4" d="M155.11,177.28a5.53,5.53,0,0,1-5.5,5.48H149v1.56h-3v-1.54h-5.16v-3.14H146v-4.75h-.6a5.49,5.49,0,1,1,0-11h.6v-1.56h3v1.56h3.68V167H149v4.75h.62A5.51,5.51,0,0,1,155.11,177.28Zm-9.75-5.51H146V167h-.57a2.38,2.38,0,0,0-.08,4.75Zm3.63,3.12v4.75h.67a2.38,2.38,0,0,0-.09-4.75Z"/><path class="cls-4" d="M107.79,177.28a5.52,5.52,0,0,1-5.49,5.48h-.62v1.56h-3v-1.54H93.53v-3.14h5.16v-4.75h-.6a5.49,5.49,0,1,1,0-11h.6v-1.56h3v1.56h3.67V167h-3.67v4.75h.62A5.5,5.5,0,0,1,107.79,177.28Zm-9.74-5.51h.64V167h-.57a2.38,2.38,0,0,0-.07,4.75Zm3.63,3.12v4.75h.66a2.38,2.38,0,0,0-.09-4.75Z"/><path d="M106.75,215.09h-3a12.5,12.5,0,0,1,12.49-12.48v3A9.5,9.5,0,0,0,106.75,215.09Z"/><path d="M180.05,115.49A623.94,623.94,0,0,0,119,96.59a10.15,10.15,0,0,1-7.54-12.34q8.29-30.55,18.51-60.89c1.79-5.38,8.4-8.52,14.57-6.88a703.86,703.86,0,0,1,67.6,21.6c5.83,2.2,8.53,8.23,6.14,13.34q-13.45,28.86-25,58.19A10.36,10.36,0,0,1,180.05,115.49Z"/><ellipse cx="150.38" cy="106.62" rx="11.1" ry="77.7" transform="translate(1.15 214.84) rotate(-71.29)"/><g class="cls-5"><circle class="cls-6" cx="73.15" cy="197.35" r="12.62"/></g><circle class="cls-7" cx="73.15" cy="197.35" r="13.52"/><line class="cls-8" x1="53.71" y1="204.95" x2="53.71" y2="204.95"/><line class="cls-9" x1="53.71" y1="214.42" x2="53.71" y2="247.54"/><line class="cls-8" x1="53.71" y1="252.27" x2="53.71" y2="252.27"/><path class="cls-10" d="M58.78,197.35h0Z"/></g></g></svg>