<svg id="레이어_1" data-name="레이어 1" xmlns="http://www.w3.org/2000/svg" viewBox="0 0 250 300"><defs><style>.cls-1{fill:#7b61ff;}.cls-2,.cls-5{fill:#fff;}.cls-3,.cls-6,.cls-7{fill:#f7c411;}.cls-4{fill:#fe9220;}.cls-5{stroke:#fff;stroke-linejoin:round;stroke-width:2.29px;}.cls-5,.cls-6,.cls-7{stroke-linecap:round;}.cls-6{stroke:#f7c411;}.cls-6,.cls-7{stroke-miterlimit:10;stroke-width:2.8px;}.cls-7{stroke:#fe9220;}.cls-8{fill:#ff89bc;}.cls-9{fill:#34b6e7;}</style></defs><circle class="cls-1" cx="125.19" cy="182.68" r="95.32"/><ellipse class="cls-2" cx="81.62" cy="174.51" rx="24.51" ry="32.68"/><ellipse cx="95.24" cy="174.51" rx="10.89" ry="23.6"/><ellipse class="cls-2" cx="130.64" cy="174.51" rx="24.51" ry="32.68"/><ellipse cx="144.26" cy="174.51" rx="10.89" ry="23.6"/><path class="cls-3" d="M195.55,29.75l.32,99.13a92.58,92.58,0,0,1-38.9-7.32c-18.72-8.25-31.62-23.18-31.62-23.18Z"/><polygon class="cls-2" points="185.99 39.1 195.59 39.92 195.6 44.67 181.53 43.46 185.99 39.1"/><polygon class="cls-2" points="167.44 57.23 195.65 60.22 195.67 65.17 162.9 61.67 167.44 57.23"/><polygon class="cls-2" points="147.44 76.79 195.72 81.9 195.74 86.86 142.91 81.21 147.44 76.79"/><path class="cls-2" d="M125.35,98.38,126.73,97l69.06,6.78,0,5L129,102.15C126.64,99.86,125.35,98.38,125.35,98.38Z"/><path class="cls-2" d="M160.41,123l35.45,3.48v2.43A93.11,93.11,0,0,1,160.41,123Z"/><circle class="cls-4" cx="196.26" cy="25.24" r="11.68"/><path class="cls-3" d="M19.26,219.56,88.37,218l.14-6.23-77.39-9.21,4.66,14.7A3.65,3.65,0,0,0,19.26,219.56Z"/><polygon class="cls-4" points="47.2 206.85 37.35 205.68 42.79 219.03 52.08 218.82 47.2 206.85"/><polygon class="cls-4" points="26.29 219.4 35.58 219.19 29.7 204.76 19.85 203.59 26.29 219.4"/><polygon class="cls-4" points="68.58 218.44 64.7 208.93 54.85 207.76 59.29 218.65 62.09 218.59 68.58 218.44"/><polygon class="cls-4" points="82.2 211.01 72.35 209.84 75.79 218.28 85.08 218.07 82.2 211.01"/><polygon class="cls-5" points="101.53 217.39 89.5 217.82 86.85 211.28 101.53 213.83 101.53 217.39"/><path class="cls-6" d="M19.1,215.75c-9.58,1.64-9.46-3.38-13-8.76-2.5-3.84-2.51-8.75,1-11.71a6.65,6.65,0,0,1,9.37.8c1.89,2.24,7.88,8.32,5.64,10.21-1.8,1.52-10.76-1.43-12.27-3.23"/><path class="cls-7" d="M25.72,218c-10.36,0-10.86,1.12-14.56-3.27a8.31,8.31,0,0,1,1-11.71,6.64,6.64,0,0,1,9.37.8,5.31,5.31,0,0,1-.63,7.49,4.25,4.25,0,0,1-6-.51"/><path class="cls-1" d="M108.26,207.62c-5.46,0-9.89,1.76-9.89,3.93s4.33,3.89,9.7,3.93c-5.37,0-9.7,1.78-9.7,3.93s4.43,3.94,9.89,3.94"/><path d="M108.27,224.75c-5.62,0-11.3-1.84-11.3-5.34,0-1.71,1.39-3,3.46-3.93-2.07-.9-3.46-2.21-3.46-3.93,0-3.5,5.68-5.34,11.3-5.34V209c-5.52,0-8.49,1.8-8.49,2.53s2.91,2.49,8.3,2.53v2.8c-5.39.05-8.3,1.82-8.3,2.53s3,2.53,8.49,2.53Z"/><polygon class="cls-4" points="107.91 40.67 102.19 45.48 92.53 38.34 98.25 33.53 107.91 40.67"/><polygon class="cls-8" points="208.32 76.76 215.78 76.21 219.44 87.65 211.99 88.2 208.32 76.76"/><polygon class="cls-9" points="39.45 111.02 38.87 103.56 50.3 99.87 50.88 107.33 39.45 111.02"/></svg>