<svg id="레이어_1" data-name="레이어 1" xmlns="http://www.w3.org/2000/svg" viewBox="0 0 250 300"><defs><style>.cls-1{fill:#7b61ff;}.cls-2{fill:#f1f1f1;}.cls-3{fill:#a90000;}.cls-4{fill:#d5000e;}.cls-5{fill:#ff0026;}</style></defs><circle class="cls-1" cx="125.25" cy="183.18" r="94.44"/><ellipse class="cls-2" cx="87.31" cy="173.7" rx="23.61" ry="32.04"/><ellipse cx="99.11" cy="173.7" rx="11.8" ry="24.03"/><ellipse class="cls-2" cx="134.53" cy="173.91" rx="23.61" ry="32.04"/><ellipse cx="146.33" cy="173.48" rx="11.8" ry="24.03"/><ellipse class="cls-3" cx="136.77" cy="93.47" rx="38.17" ry="67.66" transform="translate(17.19 208.12) rotate(-78.14)"/><ellipse class="cls-4" cx="138.52" cy="87.1" rx="38.17" ry="75.76" transform="translate(24.81 204.76) rotate(-78.14)"/><rect class="cls-5" x="141.99" y="44.12" width="7.58" height="16.78" rx="3.79" transform="translate(13.9 -28.84) rotate(11.86)"/><path d="M108.41,202.43c3.51-3.51,14.06-5.86,19.92,4.72,6.33,11.43,11.71,14,18.74,9.34,0,0-17.57,19.92-37.56,2.26C104.62,214.44,103.72,207.12,108.41,202.43Z"/><path d="M102.47,202.43c-3.52-3.51-14.06-5.86-19.92,4.72-6.33,11.43-11.72,14-18.75,9.34,0,0,17.58,19.92,37.57,2.26C106.26,214.44,107.15,207.12,102.47,202.43Z"/></svg>