<svg id="레이어_1" data-name="레이어 1" xmlns="http://www.w3.org/2000/svg" viewBox="0 0 250 300"><defs><style>.cls-1{fill:#fffbf3;}.cls-2{fill:#fff4d7;}.cls-3{fill:#ffd335;}.cls-4{fill:#a5a4a4;}.cls-5{fill:#fff;}.cls-6{fill:#777070;}.cls-7{fill:#7b61ff;}.cls-8{fill:#efefef;opacity:0.4;}.cls-9{fill:#3e3e45;}</style></defs><circle class="cls-1" cx="195.33" cy="55.49" r="45.33"/><circle class="cls-2" cx="195.33" cy="55.49" r="37.56"/><path class="cls-3" d="M223.15,55.65a27.82,27.82,0,1,0-48.83,17.51c1.8,2.2,9.36,11.78,9.58,18.62l10.47.27,10.46.27c.57-6.81,8.62-16,10.53-18.08A27.69,27.69,0,0,0,223.15,55.65Z"/><path class="cls-4" d="M201.58,101.13a7.46,7.46,0,1,0-7.65,7.26A7.47,7.47,0,0,0,201.58,101.13Z"/><path class="cls-5" d="M200.78,89.7H188.33a.93.93,0,0,1-.93-.93V65.84l-4.88-8.52a.92.92,0,0,1,.14-1.11c.84-.86,2.4-2.3,3.47-2.3a3.21,3.21,0,0,1,2.07,1.29,7.68,7.68,0,0,0,.74.69,7.68,7.68,0,0,0,.74-.69,2.31,2.31,0,0,1,4.14,0,9,9,0,0,0,.73.69,7.68,7.68,0,0,0,.74-.69,2.31,2.31,0,0,1,4.14,0,7.68,7.68,0,0,0,.74.69,6.61,6.61,0,0,0,.73-.69A3.23,3.23,0,0,1,203,53.91c1.07,0,2.63,1.44,3.47,2.3a.92.92,0,0,1,.14,1.11l-4.88,8.52V88.77A.93.93,0,0,1,200.78,89.7Zm-11.52-1.86h10.59V65.59a.93.93,0,0,1,.12-.46L204.62,57A8,8,0,0,0,203,55.79a6.84,6.84,0,0,0-.76.71,2.31,2.31,0,0,1-4.14,0,6.6,6.6,0,0,0-.74-.69,6.6,6.6,0,0,0-.74.69,3.19,3.19,0,0,1-2.07,1.29,3.23,3.23,0,0,1-2.07-1.29,5.79,5.79,0,0,0-.73-.69,6.6,6.6,0,0,0-.74.69,2.31,2.31,0,0,1-4.14,0,6.84,6.84,0,0,0-.76-.71A7.71,7.71,0,0,0,184.49,57l4.65,8.11a.93.93,0,0,1,.12.46Z"/><path class="cls-6" d="M205.33,92.37a2.71,2.71,0,0,0,.14-5.4l-22.67-.59a2.7,2.7,0,0,0-.14,5.39,2.71,2.71,0,0,0-.16,5.4,2.48,2.48,0,0,0-1,2,2.33,2.33,0,0,0,2.17,2.47l20.22.53a2.32,2.32,0,0,0,2.29-2.35,2.45,2.45,0,0,0-.93-2,2.7,2.7,0,0,0,.12-5.39Z"/><circle class="cls-7" cx="124.36" cy="183.71" r="94.34"/><ellipse class="cls-5" cx="81.23" cy="177.05" rx="24.26" ry="33.62"/><path d="M105.44,175.78c-.4-15-7.86-27.43-17.92-31.16-2.83,4.69-4.66,12-4.66,20.36,0,14.18,5.31,25.67,11.85,25.67C99.47,190.65,103.56,184.55,105.44,175.78Z"/><ellipse class="cls-5" cx="129.79" cy="177.05" rx="24.26" ry="33.62"/><path d="M154,175.78c-.41-15-7.87-27.43-17.92-31.16-2.83,4.69-4.66,12-4.66,20.36,0,14.18,5.3,25.67,11.85,25.67C148,190.65,152.12,184.55,154,175.78Z"/><polygon points="117.67 221.5 104.35 216.61 92.4 221.48 91.27 218.7 104.29 213.39 118.71 218.68 117.67 221.5"/><path class="cls-8" d="M68.89,205.21A29.75,29.75,0,1,0,39.14,235,29.74,29.74,0,0,0,68.89,205.21Z"/><path class="cls-9" d="M52,236.21a33.53,33.53,0,1,1,18.23-43.77A33.57,33.57,0,0,1,52,236.21ZM28.26,178.62A28.76,28.76,0,1,0,65.8,194.26,28.78,28.78,0,0,0,28.26,178.62Z"/><rect class="cls-9" x="48.28" y="233.03" width="5.48" height="8.53" transform="translate(-86.63 37.38) rotate(-22.42)"/><path class="cls-9" d="M68.14,265.38a5.25,5.25,0,0,1-2.86,6.85h0a5.24,5.24,0,0,1-6.85-2.85l-10-24.29a5.24,5.24,0,0,1,2.85-6.85h0a5.24,5.24,0,0,1,6.85,2.85Z"/></svg>